<svg version="1" xmlns="http://www.w3.org/2000/svg" width="413.333" height="413.333" viewBox="0 0 310.000000 310.000000"><path d="M157.6 10.4c-7.4 3.6-13.9 9.4-16.6 15.1-2.2 4.5-2.7 6.2-4 13.7-.5 2.7-1.1 5.2-1.5 5.7-.3.5-.1 1.3.5 1.6.8.5.8 1.1 0 2-.7.9-1 4.3-.8 9 .2 4.1 0 7.5-.3 7.5-.4 0-1 4.2-1.4 9.2-.4 5.1-.9 9.7-1.2 10.2-.4.5-.8 2.7-1 4.9-.2 2.3-.6 5.2-.9 6.6-.3 1.4-.8 3.9-1.1 5.6-.3 1.6-.9 3.5-1.4 4-.4.6-.4 1.7.1 2.5.5.9.5 1.7 0 2-.6.3-1.1 2.3-1.2 4.3-.2 2-.6 3.7-.9 3.7-.3 0-.6.6-.6 1.2-.1 2.1-1.1 7.8-2.8 16.3-.9 4.4-1.6 9.1-1.5 10.4 0 1.3-.4 3.9-.9 5.8-.5 1.8-.6 3.3-.1 3.3s.4 1.5-.1 3.2c-.5 1.8-.9 12.6-.9 23.9v20.7l3.6 2.2c6.1 3.5 14.1 5.1 29.1 5.6l14.3.5 1.7-3.6c.9-1.9 2.1-3.5 2.6-3.5s.4-.7-.3-1.5c-.9-1-.9-1.5-.1-1.5.6 0 1.1-1.1 1.1-2.5s.5-2.5 1.2-2.5c.9 0 .9-.3.1-1.1-.7-.7-.8-2.1-.3-3.8.5-1.4 1.1-6.8 1.4-12 .6-9.7 5.1-33.8 6.7-35.7.5-.6.4-1.5-.3-2.2-.8-.8-.8-1.2-.1-1.2.5 0 1.6-2.8 2.3-6.3.7-3.4 1.6-6.7 1.9-7.2.6-1 3.8-13.2 4.6-17.5.2-1.4.7-3.6 1.1-5 .3-1.4.8-3.7 1.1-5.3.3-1.5.8-2.7 1.2-2.7.3 0 .7-1.8.8-4 .2-2.2.7-4.9 1.3-6 .5-1 1-3.2 1-4.8 0-1.6.3-3.2.8-3.6.4-.4.7-1.1.7-1.4.1-.9 1.4-7.1 2.1-10.2.3-1.4.8-3.6.9-5 .2-1.4.4-2.5.5-2.5.2 0 .8-2.3 2.5-10.5 3.6-16.8 4.2-23 2.7-25.4-.4-.6-.7-1.4-.7-1.7 0-.3-1.3-2-3-3.8-4-4.4-10.6-8.1-14.8-8.5-1.9-.2-3.9-.6-4.5-1-.6-.3-1.3-.2-1.7.4-.4.6-1.1.7-1.8.3-1.6-1-5.7-1-5.7 0 0 .4-.8.3-1.8-.2-2.8-1.5-7.1-.8-13.6 2.3zM126 246c-5.3 1-9.1 3.3-14.2 8.8-6.7 7.2-12 18.2-12 25.2 0 6.6 3.8 16.3 7.3 18.8 1 .7 2.5 1.9 3.3 2.7 1.1 1.1 3.9 1.5 11.1 1.5 5.3 0 10.5.5 11.5 1 1.3.7 2.1.7 2.5 0 .4-.6 1.3-.7 2.2-.2 1.7 1 7-.6 13.5-3.9 5.4-2.7 12.6-9.5 14.8-13.9 2.1-4.1 2.5-6 4.7-19.7.4-2.4-.1-4-1.8-6.2-1.3-1.6-2.8-3-3.2-3-.5-.1-1.4-.7-2.2-1.4-3.1-2.9-5.6-4.7-6.7-4.7-.6 0-1.9-.7-2.8-1.5-2.2-2-11.5-3.2-13.3-1.7-1 .9-2.6.7-6.3-.6-3.1-1.2-6.2-1.6-8.4-1.2z"/></svg>